<mxfile host="Electron" agent="Mozilla/5.0 (Windows NT 10.0; Win64; x64) AppleWebKit/537.36 (KHTML, like Gecko) draw.io/26.0.9 Chrome/128.0.6613.186 Electron/32.2.5 Safari/537.36" version="26.0.9">
  <diagram name="Page-1" id="fP4p_7FxGlk74PqjBXA3">
    <mxGraphModel dx="1055" dy="629" grid="1" gridSize="10" guides="1" tooltips="1" connect="1" arrows="1" fold="1" page="1" pageScale="1" pageWidth="850" pageHeight="1100" math="0" shadow="0">
      <root>
        <mxCell id="0" />
        <mxCell id="1" parent="0" />
        <mxCell id="a3e8bXI5TY6yMwncrClY-1" value="Programm" style="shape=umlFrame;whiteSpace=wrap;html=1;pointerEvents=0;recursiveResize=0;container=1;collapsible=0;width=160;" vertex="1" parent="1">
          <mxGeometry x="380" y="40" width="410" height="540" as="geometry" />
        </mxCell>
        <mxCell id="a3e8bXI5TY6yMwncrClY-36" value="Ärzte und Terminarten anzeigen" style="rounded=1;whiteSpace=wrap;html=1;arcSize=40;fontColor=#000000;fillColor=#ffffc0;strokeColor=#ff0000;" vertex="1" parent="a3e8bXI5TY6yMwncrClY-1">
          <mxGeometry x="15" y="50" width="120" height="40" as="geometry" />
        </mxCell>
        <mxCell id="a3e8bXI5TY6yMwncrClY-42" value="" style="rhombus;whiteSpace=wrap;html=1;fontColor=#000000;fillColor=#ffffc0;strokeColor=#ff0000;" vertex="1" parent="a3e8bXI5TY6yMwncrClY-1">
          <mxGeometry x="173" y="270" width="80" height="40" as="geometry" />
        </mxCell>
        <mxCell id="a3e8bXI5TY6yMwncrClY-43" value="Überprüfen ob der Termin noch frei ist" style="rounded=1;whiteSpace=wrap;html=1;arcSize=40;fontColor=#000000;fillColor=#ffffc0;strokeColor=#ff0000;" vertex="1" parent="a3e8bXI5TY6yMwncrClY-1">
          <mxGeometry x="13" y="270" width="120" height="40" as="geometry" />
        </mxCell>
        <mxCell id="a3e8bXI5TY6yMwncrClY-45" value="" style="edgeStyle=orthogonalEdgeStyle;html=1;verticalAlign=bottom;endArrow=open;endSize=8;strokeColor=#ff0000;rounded=0;" edge="1" parent="a3e8bXI5TY6yMwncrClY-1" source="a3e8bXI5TY6yMwncrClY-43" target="a3e8bXI5TY6yMwncrClY-42">
          <mxGeometry relative="1" as="geometry">
            <mxPoint x="-7" y="230" as="targetPoint" />
            <mxPoint x="163" y="230" as="sourcePoint" />
          </mxGeometry>
        </mxCell>
        <mxCell id="a3e8bXI5TY6yMwncrClY-11" value="1. freien Termin ermitteln" style="rounded=1;whiteSpace=wrap;html=1;arcSize=40;fontColor=#000000;fillColor=#ffffc0;strokeColor=#ff0000;" vertex="1" parent="a3e8bXI5TY6yMwncrClY-1">
          <mxGeometry x="153" y="200" width="120" height="40" as="geometry" />
        </mxCell>
        <mxCell id="a3e8bXI5TY6yMwncrClY-12" value="alle freien Termine im Monat des 1. freien Termins anzeigen" style="rounded=1;whiteSpace=wrap;html=1;arcSize=40;fontColor=#000000;fillColor=#ffffc0;strokeColor=#ff0000;" vertex="1" parent="a3e8bXI5TY6yMwncrClY-1">
          <mxGeometry x="15" y="200" width="120" height="40" as="geometry" />
        </mxCell>
        <mxCell id="a3e8bXI5TY6yMwncrClY-13" value="" style="edgeStyle=orthogonalEdgeStyle;html=1;verticalAlign=bottom;endArrow=open;endSize=8;strokeColor=#ff0000;rounded=0;" edge="1" parent="a3e8bXI5TY6yMwncrClY-1" source="a3e8bXI5TY6yMwncrClY-11" target="a3e8bXI5TY6yMwncrClY-12">
          <mxGeometry relative="1" as="geometry">
            <mxPoint x="163" y="165" as="targetPoint" />
            <mxPoint x="103" y="165" as="sourcePoint" />
          </mxGeometry>
        </mxCell>
        <mxCell id="a3e8bXI5TY6yMwncrClY-20" value="" style="rhombus;whiteSpace=wrap;html=1;fontColor=#000000;fillColor=#ffffc0;strokeColor=#ff0000;" vertex="1" parent="a3e8bXI5TY6yMwncrClY-1">
          <mxGeometry x="173" y="135" width="80" height="40" as="geometry" />
        </mxCell>
        <mxCell id="a3e8bXI5TY6yMwncrClY-10" value="" style="edgeStyle=orthogonalEdgeStyle;html=1;verticalAlign=bottom;endArrow=open;endSize=8;strokeColor=#ff0000;rounded=0;" edge="1" source="a3e8bXI5TY6yMwncrClY-20" parent="a3e8bXI5TY6yMwncrClY-1" target="a3e8bXI5TY6yMwncrClY-11">
          <mxGeometry relative="1" as="geometry">
            <mxPoint x="-47" y="240" as="targetPoint" />
          </mxGeometry>
        </mxCell>
        <mxCell id="a3e8bXI5TY6yMwncrClY-5" value="Arzt auswählen" style="rounded=1;whiteSpace=wrap;html=1;arcSize=40;fontColor=#000000;fillColor=#ffffc0;strokeColor=#ff0000;" vertex="1" parent="a3e8bXI5TY6yMwncrClY-1">
          <mxGeometry x="-277" y="135" width="120" height="40" as="geometry" />
        </mxCell>
        <mxCell id="a3e8bXI5TY6yMwncrClY-38" value="" style="edgeStyle=orthogonalEdgeStyle;html=1;verticalAlign=bottom;endArrow=open;endSize=8;strokeColor=#ff0000;rounded=0;" edge="1" parent="a3e8bXI5TY6yMwncrClY-1" source="a3e8bXI5TY6yMwncrClY-36" target="a3e8bXI5TY6yMwncrClY-5">
          <mxGeometry relative="1" as="geometry">
            <mxPoint x="60" y="80" as="targetPoint" />
            <mxPoint x="-45" y="80" as="sourcePoint" />
            <Array as="points">
              <mxPoint x="110" y="105" />
              <mxPoint x="-215" y="105" />
            </Array>
          </mxGeometry>
        </mxCell>
        <mxCell id="a3e8bXI5TY6yMwncrClY-6" value="" style="edgeStyle=orthogonalEdgeStyle;html=1;verticalAlign=bottom;endArrow=open;endSize=8;strokeColor=#ff0000;rounded=0;" edge="1" source="a3e8bXI5TY6yMwncrClY-5" parent="a3e8bXI5TY6yMwncrClY-1" target="a3e8bXI5TY6yMwncrClY-9">
          <mxGeometry relative="1" as="geometry">
            <mxPoint x="-197" y="240" as="targetPoint" />
          </mxGeometry>
        </mxCell>
        <mxCell id="a3e8bXI5TY6yMwncrClY-9" value="Terminart auswählen" style="rounded=1;whiteSpace=wrap;html=1;arcSize=40;fontColor=#000000;fillColor=#ffffc0;strokeColor=#ff0000;" vertex="1" parent="a3e8bXI5TY6yMwncrClY-1">
          <mxGeometry x="-137" y="135" width="120" height="40" as="geometry" />
        </mxCell>
        <mxCell id="a3e8bXI5TY6yMwncrClY-21" value="" style="edgeStyle=orthogonalEdgeStyle;html=1;verticalAlign=bottom;endArrow=open;endSize=8;strokeColor=#ff0000;rounded=0;" edge="1" parent="a3e8bXI5TY6yMwncrClY-1" source="a3e8bXI5TY6yMwncrClY-9" target="a3e8bXI5TY6yMwncrClY-20">
          <mxGeometry relative="1" as="geometry">
            <mxPoint x="138" y="155" as="targetPoint" />
            <mxPoint x="-17" y="155" as="sourcePoint" />
          </mxGeometry>
        </mxCell>
        <mxCell id="a3e8bXI5TY6yMwncrClY-39" value="Termin auswählen" style="rounded=1;whiteSpace=wrap;html=1;arcSize=40;fontColor=#000000;fillColor=#ffffc0;strokeColor=#ff0000;" vertex="1" parent="a3e8bXI5TY6yMwncrClY-1">
          <mxGeometry x="-137" y="200" width="120" height="40" as="geometry" />
        </mxCell>
        <mxCell id="a3e8bXI5TY6yMwncrClY-41" value="" style="edgeStyle=orthogonalEdgeStyle;html=1;verticalAlign=bottom;endArrow=open;endSize=8;strokeColor=#ff0000;rounded=0;" edge="1" parent="a3e8bXI5TY6yMwncrClY-1" source="a3e8bXI5TY6yMwncrClY-12" target="a3e8bXI5TY6yMwncrClY-39">
          <mxGeometry relative="1" as="geometry">
            <mxPoint x="163" y="165" as="targetPoint" />
            <mxPoint x="123" y="165" as="sourcePoint" />
          </mxGeometry>
        </mxCell>
        <mxCell id="a3e8bXI5TY6yMwncrClY-44" value="" style="edgeStyle=orthogonalEdgeStyle;html=1;verticalAlign=bottom;endArrow=open;endSize=8;strokeColor=#ff0000;rounded=0;" edge="1" parent="a3e8bXI5TY6yMwncrClY-1" source="a3e8bXI5TY6yMwncrClY-39" target="a3e8bXI5TY6yMwncrClY-43">
          <mxGeometry relative="1" as="geometry">
            <mxPoint x="-7" y="230" as="targetPoint" />
            <mxPoint x="163" y="230" as="sourcePoint" />
            <Array as="points">
              <mxPoint x="-77" y="290" />
            </Array>
          </mxGeometry>
        </mxCell>
        <mxCell id="a3e8bXI5TY6yMwncrClY-46" value="Termin nicht mehr frei" style="edgeStyle=orthogonalEdgeStyle;html=1;align=left;verticalAlign=bottom;endArrow=open;endSize=8;strokeColor=#ff0000;rounded=0;" edge="1" parent="a3e8bXI5TY6yMwncrClY-1" source="a3e8bXI5TY6yMwncrClY-42" target="a3e8bXI5TY6yMwncrClY-67">
          <mxGeometry x="-1" relative="1" as="geometry">
            <mxPoint x="353" y="289.40999999999997" as="targetPoint" />
            <mxPoint x="253" y="289.40999999999997" as="sourcePoint" />
            <Array as="points">
              <mxPoint x="350" y="290" />
            </Array>
          </mxGeometry>
        </mxCell>
        <mxCell id="a3e8bXI5TY6yMwncrClY-54" value="Anwender informieren, dass der termin reserviert wird" style="rounded=1;whiteSpace=wrap;html=1;arcSize=40;fontColor=#000000;fillColor=#ffffc0;strokeColor=#ff0000;" vertex="1" parent="a3e8bXI5TY6yMwncrClY-1">
          <mxGeometry x="90" y="370" width="120" height="40" as="geometry" />
        </mxCell>
        <mxCell id="a3e8bXI5TY6yMwncrClY-55" value="Termin reservieren" style="rounded=1;whiteSpace=wrap;html=1;arcSize=40;fontColor=#000000;fillColor=#ffffc0;strokeColor=#ff0000;" vertex="1" parent="a3e8bXI5TY6yMwncrClY-1">
          <mxGeometry x="220" y="370" width="120" height="40" as="geometry" />
        </mxCell>
        <mxCell id="a3e8bXI5TY6yMwncrClY-56" value="" style="ellipse;html=1;shape=endState;fillColor=#000000;strokeColor=#ff0000;" vertex="1" parent="a3e8bXI5TY6yMwncrClY-1">
          <mxGeometry x="198" y="470" width="30" height="30" as="geometry" />
        </mxCell>
        <mxCell id="a3e8bXI5TY6yMwncrClY-59" value="" style="shape=line;html=1;strokeWidth=6;strokeColor=#ff0000;" vertex="1" parent="a3e8bXI5TY6yMwncrClY-1">
          <mxGeometry x="113" y="330" width="200" height="10" as="geometry" />
        </mxCell>
        <mxCell id="a3e8bXI5TY6yMwncrClY-58" value="Termin frei" style="edgeStyle=orthogonalEdgeStyle;html=1;align=left;verticalAlign=bottom;endArrow=open;endSize=8;strokeColor=#ff0000;rounded=0;" edge="1" parent="a3e8bXI5TY6yMwncrClY-1" source="a3e8bXI5TY6yMwncrClY-42" target="a3e8bXI5TY6yMwncrClY-59">
          <mxGeometry relative="1" as="geometry">
            <mxPoint x="-10" y="480" as="targetPoint" />
            <mxPoint x="-110" y="480" as="sourcePoint" />
            <mxPoint as="offset" />
          </mxGeometry>
        </mxCell>
        <mxCell id="a3e8bXI5TY6yMwncrClY-60" value="" style="edgeStyle=orthogonalEdgeStyle;html=1;verticalAlign=bottom;endArrow=open;endSize=8;strokeColor=#ff0000;rounded=0;" edge="1" parent="a3e8bXI5TY6yMwncrClY-1" source="a3e8bXI5TY6yMwncrClY-59" target="a3e8bXI5TY6yMwncrClY-54">
          <mxGeometry relative="1" as="geometry">
            <mxPoint x="183" y="300" as="targetPoint" />
            <mxPoint x="143" y="300" as="sourcePoint" />
            <Array as="points">
              <mxPoint x="150" y="350" />
              <mxPoint x="150" y="350" />
            </Array>
          </mxGeometry>
        </mxCell>
        <mxCell id="a3e8bXI5TY6yMwncrClY-61" value="" style="edgeStyle=orthogonalEdgeStyle;html=1;verticalAlign=bottom;endArrow=open;endSize=8;strokeColor=#ff0000;rounded=0;" edge="1" parent="a3e8bXI5TY6yMwncrClY-1" source="a3e8bXI5TY6yMwncrClY-59" target="a3e8bXI5TY6yMwncrClY-55">
          <mxGeometry relative="1" as="geometry">
            <mxPoint x="160" y="380" as="targetPoint" />
            <mxPoint x="160" y="350" as="sourcePoint" />
            <Array as="points">
              <mxPoint x="280" y="350" />
              <mxPoint x="280" y="350" />
            </Array>
          </mxGeometry>
        </mxCell>
        <mxCell id="a3e8bXI5TY6yMwncrClY-62" value="" style="shape=line;html=1;strokeWidth=6;strokeColor=#ff0000;" vertex="1" parent="a3e8bXI5TY6yMwncrClY-1">
          <mxGeometry x="113" y="430" width="200" height="10" as="geometry" />
        </mxCell>
        <mxCell id="a3e8bXI5TY6yMwncrClY-64" value="" style="edgeStyle=orthogonalEdgeStyle;html=1;verticalAlign=bottom;endArrow=open;endSize=8;strokeColor=#ff0000;rounded=0;" edge="1" parent="a3e8bXI5TY6yMwncrClY-1" source="a3e8bXI5TY6yMwncrClY-55" target="a3e8bXI5TY6yMwncrClY-62">
          <mxGeometry relative="1" as="geometry">
            <mxPoint x="290" y="380" as="targetPoint" />
            <mxPoint x="290" y="350" as="sourcePoint" />
            <Array as="points">
              <mxPoint x="280" y="420" />
              <mxPoint x="280" y="420" />
            </Array>
          </mxGeometry>
        </mxCell>
        <mxCell id="a3e8bXI5TY6yMwncrClY-65" value="" style="edgeStyle=orthogonalEdgeStyle;html=1;verticalAlign=bottom;endArrow=open;endSize=8;strokeColor=#ff0000;rounded=0;" edge="1" parent="a3e8bXI5TY6yMwncrClY-1" source="a3e8bXI5TY6yMwncrClY-54" target="a3e8bXI5TY6yMwncrClY-62">
          <mxGeometry relative="1" as="geometry">
            <mxPoint x="290" y="440" as="targetPoint" />
            <mxPoint x="290" y="420" as="sourcePoint" />
            <Array as="points">
              <mxPoint x="150" y="420" />
              <mxPoint x="150" y="420" />
            </Array>
          </mxGeometry>
        </mxCell>
        <mxCell id="a3e8bXI5TY6yMwncrClY-66" value="" style="edgeStyle=orthogonalEdgeStyle;html=1;verticalAlign=bottom;endArrow=open;endSize=8;strokeColor=#ff0000;rounded=0;" edge="1" parent="a3e8bXI5TY6yMwncrClY-1" source="a3e8bXI5TY6yMwncrClY-62" target="a3e8bXI5TY6yMwncrClY-56">
          <mxGeometry relative="1" as="geometry">
            <mxPoint x="290" y="380" as="targetPoint" />
            <mxPoint x="290" y="350" as="sourcePoint" />
            <Array as="points">
              <mxPoint x="213" y="460" />
              <mxPoint x="213" y="460" />
            </Array>
          </mxGeometry>
        </mxCell>
        <mxCell id="a3e8bXI5TY6yMwncrClY-67" value="Meldung ausgeben" style="rounded=1;whiteSpace=wrap;html=1;arcSize=40;fontColor=#000000;fillColor=#ffffc0;strokeColor=#ff0000;" vertex="1" parent="a3e8bXI5TY6yMwncrClY-1">
          <mxGeometry x="290" y="200" width="120" height="40" as="geometry" />
        </mxCell>
        <mxCell id="a3e8bXI5TY6yMwncrClY-68" value="" style="edgeStyle=orthogonalEdgeStyle;html=1;verticalAlign=bottom;endArrow=open;endSize=8;strokeColor=#ff0000;rounded=0;" edge="1" parent="a3e8bXI5TY6yMwncrClY-1" source="a3e8bXI5TY6yMwncrClY-67" target="a3e8bXI5TY6yMwncrClY-20">
          <mxGeometry relative="1" as="geometry">
            <mxPoint x="160" y="380" as="targetPoint" />
            <mxPoint x="490" y="320" as="sourcePoint" />
            <Array as="points">
              <mxPoint x="350" y="155" />
            </Array>
          </mxGeometry>
        </mxCell>
        <mxCell id="a3e8bXI5TY6yMwncrClY-2" value="User" style="shape=umlFrame;whiteSpace=wrap;html=1;pointerEvents=0;recursiveResize=0;container=1;collapsible=0;width=160;" vertex="1" parent="1">
          <mxGeometry x="40" y="40" width="340" height="540" as="geometry" />
        </mxCell>
        <mxCell id="a3e8bXI5TY6yMwncrClY-3" value="" style="ellipse;html=1;shape=startState;fillColor=#000000;strokeColor=#ff0000;" vertex="1" parent="a3e8bXI5TY6yMwncrClY-2">
          <mxGeometry x="20" y="55" width="30" height="30" as="geometry" />
        </mxCell>
        <mxCell id="a3e8bXI5TY6yMwncrClY-4" value="" style="edgeStyle=orthogonalEdgeStyle;html=1;verticalAlign=bottom;endArrow=open;endSize=8;strokeColor=#ff0000;rounded=0;" edge="1" source="a3e8bXI5TY6yMwncrClY-3" parent="a3e8bXI5TY6yMwncrClY-2" target="a3e8bXI5TY6yMwncrClY-22">
          <mxGeometry relative="1" as="geometry">
            <mxPoint x="35" y="145" as="targetPoint" />
          </mxGeometry>
        </mxCell>
        <mxCell id="a3e8bXI5TY6yMwncrClY-22" value="Terminreservierung aufrufen" style="rounded=1;whiteSpace=wrap;html=1;arcSize=40;fontColor=#000000;fillColor=#ffffc0;strokeColor=#ff0000;" vertex="1" parent="a3e8bXI5TY6yMwncrClY-2">
          <mxGeometry x="205" y="50" width="120" height="40" as="geometry" />
        </mxCell>
        <mxCell id="a3e8bXI5TY6yMwncrClY-37" value="" style="edgeStyle=orthogonalEdgeStyle;html=1;verticalAlign=bottom;endArrow=open;endSize=8;strokeColor=#ff0000;rounded=0;" edge="1" parent="1" source="a3e8bXI5TY6yMwncrClY-22" target="a3e8bXI5TY6yMwncrClY-36">
          <mxGeometry relative="1" as="geometry">
            <mxPoint x="215" y="120" as="targetPoint" />
            <mxPoint x="100" y="120" as="sourcePoint" />
          </mxGeometry>
        </mxCell>
      </root>
    </mxGraphModel>
  </diagram>
</mxfile>
